<svg id="Layer_1" data-name="Layer 1" xmlns="http://www.w3.org/2000/svg" viewBox="0 0 384.87 384.13"><defs><style>.cls-1{fill:#e2f2f7;}.cls-2{fill:#fefefe;}.cls-3{fill:#0d3143;}</style></defs><title>logoIcon</title><path class="cls-1" d="M473,170V344.75a77.44,77.44,0,0,1-6.83,25.77A85.26,85.26,0,0,1,431.39,409a74.85,74.85,0,0,1-34.89,10.77H164a71.48,71.48,0,0,1-32.21-10c-23.65-13.76-38.16-34-42.55-61.12a63.77,63.77,0,0,1-.61-10.08q0-82.26,0-164.54c0-4.85.21-5.07,4.94-5.21,1.13,0,2.25,0,3.38,0q184.22,0,368.44,0C468,168.85,470.68,168.21,473,170Z" transform="translate(-88.19 -35.69)"/><path class="cls-2" d="M473,170c-1.36-.08-2.72-.24-4.09-.24q-187.77,0-375.56-.1c-3.55,0-4.45.74-4.44,4.39.13,53.6-.23,107.2.21,160.79.27,32.71,15.29,57.49,43.44,74.13a80.73,80.73,0,0,0,29.57,10c.68.1,1.55-.19,1.87.79-24.37,0-48.75,0-73.12.06-2.24,0-2.69-.45-2.69-2.69q.11-189.36,0-378.74c0-2.24.45-2.7,2.69-2.69,24.62.1,49.24.06,73.87.06-.45,2.26-2.46,1.77-3.87,2a82.8,82.8,0,0,0-34.8,14C105.8,66.29,93.93,85.87,90.7,110.68c-1.2,9.22-.34,18.46-.7,27.68-.12,3.23,1.67,3.64,4.26,3.64,15-.05,30,0,45,0,10.87,0,21.74-.23,32.6.11,4.79.15,7.36-1.41,9.51-5.78,15.79-32.05,31.85-64,47.83-95.91.84-1.67,1.54-3.44,3.08-4.64h30c1.17,2.21-.47,3.82-1.31,5.51q-23.48,47.16-47.09,94.24c-.39.78-.77,1.57-1.16,2.35-2,4.13-2,4.14,2.56,4.14,30.62,0,61.24-.06,91.86.08,3.78,0,5.82-1.25,7.51-4.64Q338.8,88.74,363.2,40.16c.83-1.66,1.47-3.48,3.3-4.41h27c1.19,2.07-.41,3.58-1.18,5.14Q368.74,88.26,345,135.55c-.61,1.23-1.26,2.44-1.75,3.72-.69,1.8-.05,2.62,1.85,2.53q60.54,0,121,0c2.33,0,4.8-.48,6.85,1.2Z" transform="translate(-88.19 -35.69)"/><path class="cls-1" d="M366.5,35.75q-25.92,51.84-51.77,103.7c-1.35,2.73-2.93,3.58-5.92,3.57-31.87-.12-63.74-.08-95.6-.08h-3.76c-.19-1.62.81-2.69,1.39-3.86q25-50.16,50.09-100.28c.49-1,.88-2,1.32-3Z" transform="translate(-88.19 -35.69)"/><path class="cls-1" d="M232.25,35.75C226,48.36,219.85,61,213.58,73.58c-11,22.08-22.08,44.12-33,66.23-1.14,2.31-2.35,3.21-5,3.2q-41.43-.16-82.87,0c-2.72,0-3.87-.39-3.76-3.55.44-12.58-.64-25.19,2.2-37.68a84.89,84.89,0,0,1,72.11-65.3c.59-.08,1.28.08,1.52-.72Z" transform="translate(-88.19 -35.69)"/><path class="cls-1" d="M473,143l-129.67,0c-1.33-2.05.32-3.57,1.09-5.12Q365,96.62,385.61,55.43c2.63-5.25,5.39-10.43,7.82-15.77,1.28-2.83,3.07-3.73,6.1-3.58,10.22.51,19.55,3.91,28.44,8.56A83.88,83.88,0,0,1,464.18,80.9c4.76,9.13,8.32,18.7,8.43,29.21a1.86,1.86,0,0,0,.39,1.39Z" transform="translate(-88.19 -35.69)"/><path class="cls-2" d="M473,111.5c-1-4.41-1.73-8.91-3.05-13.22-10.66-34.6-34-55-69.47-61.69-2.87-.54-4.58,0-6.07,3C378,72.84,361.32,106,344.75,139.21c-.59,1.19-1.63,2.26-1.42,3.76-1.81-.79-1.84-2.17-1.18-3.72.45-1,1-2,1.49-3q24-48,48-96c.71-1.44,1.24-3,1.86-4.45,25.62,0,51.25,0,76.87-.06,2.24,0,2.7.45,2.69,2.69C473,62.75,473,87.13,473,111.5Z" transform="translate(-88.19 -35.69)"/><path class="cls-2" d="M396.5,419.75c4.17-.87,8.43-1.47,12.51-2.66,35.63-10.4,56.59-34,63.19-70.47.13-.68-.18-1.55.8-1.87,0,24.12,0,48.25.06,72.37,0,2.24-.45,2.7-2.69,2.69C445.75,419.71,421.13,419.75,396.5,419.75Z" transform="translate(-88.19 -35.69)"/><path class="cls-3" d="M218.55,290.38c0-15.74-.1-31.48,0-47.22.1-12,7.73-20.77,19.31-22.58a21,21,0,0,1,13.39,2.47q44.28,23.77,88.52,47.65c7.75,4.21,11.75,11.15,11.58,20-.18,9.34-5.15,15.83-13.26,20.18q-39,20.92-78,41.94c-3,1.59-5.89,3.24-8.91,4.73C235.89,365.07,219,355,218.64,338c-.3-15.87-.07-31.74-.07-47.61Z" transform="translate(-88.19 -35.69)"/></svg>