<svg id="Layer_1" data-name="Layer 1" xmlns="http://www.w3.org/2000/svg" viewBox="0 0 384.44 384"><defs><style>.cls-1{fill:#eefaff;}.cls-2{fill:#0d3143;}</style></defs><title>videoWIcon</title><path class="cls-1" d="M396,431.75H163.5c-14.73-1.06-27.89-6.53-39.78-14.94C106.3,404.5,95.17,387.72,89.94,367c-.85-3.37-.64-6.9-1.44-10.29V182c1.69-1.45,3.76-1.16,5.73-1.16q21.18,0,42.36,0h328c8.3,0,8.3,0,8.3,8.24,0,52.35-.2,104.7.08,157.05.18,34.6-15.42,59.65-44.88,76.61-9.28,5.34-19.34,8.7-30.27,8.64A2.74,2.74,0,0,0,396,431.75Z" transform="translate(-88.5 -47.75)"/><path class="cls-1" d="M366,47.75q-25.92,51.84-51.77,103.7c-1.35,2.73-2.93,3.58-5.92,3.57-31.87-.12-63.74-.08-95.6-.08H209c-.19-1.62.81-2.69,1.39-3.86q25-50.16,50.09-100.28c.49-1,.88-2,1.32-3Z" transform="translate(-88.5 -47.75)"/><path class="cls-1" d="M231.75,47.75c-6.22,12.61-12.4,25.23-18.66,37.81-11,22.08-22.09,44.11-33,66.23-1.25,2.52-2.65,3.23-5.38,3.22-28.74-.09-57.47,0-86.21,0V122.75A77.44,77.44,0,0,1,95.33,97a85.19,85.19,0,0,1,34.78-38.45,76,76,0,0,1,34.14-10.78Z" transform="translate(-88.5 -47.75)"/><path class="cls-2" d="M218.05,302c0-15.61-.1-31.23,0-46.85.1-12,7.73-20.77,19.32-22.56,5.42-.84,10.31.75,15.05,3.31q42.6,23,85.25,45.84c8.29,4.43,13.19,11.08,13.18,20.58s-5,16.12-13.26,20.55q-39,20.92-78,41.94c-3,1.6-5.9,3.24-8.91,4.73-15.32,7.53-32-2.5-32.64-19.56,0-.37,0-.75,0-1.12Z" transform="translate(-88.5 -47.75)"/><path class="cls-1" d="M342.93,154.94c-.13-1.65.77-2.62,1.3-3.69q25-50,49.87-100c1.35-2.74,2.91-3.06,5.5-2.73C434.49,53,464.81,81.86,471,116.45c2.17,12.17,1.23,24.41,1.52,36.62,0,1.48-.5,2.06-1.94,1.88a8.51,8.51,0,0,0-1.13,0H342.93Z" transform="translate(-88.5 -47.75)"/></svg>