<svg id="Layer_1" data-name="Layer 1" xmlns="http://www.w3.org/2000/svg" viewBox="0 0 384 384"><defs><style>.cls-1{fill:#0d3143;}</style></defs><title>videoIcon</title><path class="cls-1" d="M468.75,181V353.5a23.8,23.8,0,0,0-.69,2.86,84.41,84.41,0,0,1-62.32,71.44c-4.68,1.25-9.49,2-14.24,2.95H162a24.39,24.39,0,0,0-2.51-.66c-34.89-5.33-58.46-24.56-70.36-57.77-2.16-6-3-12.53-4.38-18.82V181c1.49-.08,3-.24,4.47-.24H464.28C465.77,180.76,467.26,180.92,468.75,181ZM214.3,301.17c0,15.62-.12,31.23,0,46.84.18,18.22,17.39,28.61,33.44,20.07,29-15.4,57.8-31.05,86.69-46.6,8.18-4.4,12.77-11.19,12.66-20.52-.1-9.17-4.83-15.73-12.85-20-28.57-15.35-57.1-30.78-85.71-46.06-17.08-9.13-34.18,1.19-34.26,20.59C214.25,270.69,214.3,285.93,214.3,301.17Z" transform="translate(-84.75 -46.75)"/><path class="cls-1" d="M362.25,46.75q-25.8,51.57-51.55,103.18c-1.43,2.9-2.91,4.14-6.38,4.12-31.75-.18-63.49-.11-95.24-.11h-4.26c.73-1.59,1.24-2.81,1.83-4q24.78-49.58,49.55-99.12c.67-1.33,1.2-2.73,1.8-4.09Z" transform="translate(-84.75 -46.75)"/><path class="cls-1" d="M228,46.75c-2.71,5.59-5.36,11.22-8.14,16.78q-21.78,43.65-43.55,87.31c-1.17,2.35-2.46,3.17-5.09,3.16-28.82-.08-57.65,0-86.47,0V123.25a13.42,13.42,0,0,0,.68-2.06c5-32.85,22.73-55.93,53.5-68.47,7.29-3,15.36-4,23.07-6Z" transform="translate(-84.75 -46.75)"/><path class="cls-1" d="M468.75,154H338.9c.53-1.31.85-2.3,1.3-3.21C357,117.19,373.84,83.63,390.48,50c1.51-3,3.46-2.76,5.75-2.33,35.44,6.56,58.71,27,69.4,61.43,1.5,4.83,2.1,10,3.12,14.93Z" transform="translate(-84.75 -46.75)"/></svg>